<svg fill="none" height="28" viewBox="0 0 28 28" width="28" xmlns="http://www.w3.org/2000/svg"><g fill="#fff"><path d="m8 11c-2.74786 0-5 2.3575-5 5.235 0 1.115.33905 2.1512.9131 3.003l3.4769 6.3109c.4869.668.81071.5413 1.21571-.035l3.83479-6.8524c.0774-.1475.1381-.304.1912-.464.2433-.6228.3684-1.2894.3683-1.9625 0-2.8775-2.2514-5.235-5-5.235zm0 2.453c1.48 0 2.6571 1.2327 2.6571 2.7822s-1.1771 2.7818-2.6571 2.7818c-1.47976 0-2.65714-1.2325-2.65714-2.7818 0-1.5495 1.17738-2.7822 2.65714-2.7822z"/><path clip-rule="evenodd" d="m24.6178 12c-.5374.0128-1.0763.0372-1.6161.0799l.0832 1.4175c.5185-.0403 1.038-.0661 1.5578-.0777zm-2.8642.2101c-.8299.1104-1.667.2678-2.4946.5207l.3117 1.3736c.7519-.2296 1.5312-.378 2.3226-.4833zm-3.7338.9962c-.2479.1173-.488.2528-.7184.4056l-.001.0013-.0014.0005c-.3289.2219-.6755.5035-.9584.9127-.205.2964-.3727.6713-.4119 1.1146l1.2186.1447c.0091-.104.0589-.2413.1483-.3705h.0005v-.0005c.1442-.2091.3604-.3989.6176-.5726l.0009-.0006c.1833-.1211.3741-.2287.5712-.3218zm-.6273 3.2118-.79 1.0851c.1873.1835.3836.3244.5733.4423l.0024.0012.0024.0016c.6295.3835 1.2786.6001 1.8804.8055l.3458-1.3626c-.6015-.2055-1.1686-.4038-1.6546-.6995-.1392-.0866-.2612-.177-.3597-.2736zm3.1894 1.3565-.3377 1.3649.1598.0533.1961.0671c.6491.2262 1.271.4679 1.8268.8022l.564-1.2606c-.6721-.4046-1.3698-.669-2.0421-.9032l-.0019-.0005-.2014-.0689zm3.5559 1.9729-.8666 1.0044c.2048.2375.3581.5232.4327.8184l.0005.0015.0005.0023c.0889.3446.0892.75.0196 1.1594l1.2016.2747c.0981-.578.1138-1.2127-.0474-1.8392-.1404-.5539-.4082-1.0351-.7409-1.4215zm-.8329 3.8418c-.1324.1499-.2787.2848-.4367.4028h-.0005c-.4305.3244-.9299.5688-1.4604.7789l.3956 1.3437c.5803-.2298 1.176-.5117 1.7329-.9314l.0014-.0013.0007-.0005c.2287-.1715.4402-.3679.6312-.586zm-3.0232 1.5602c-.7684.2214-1.5539.39-2.3489.5329l.1875 1.4039c.8182-.1473 1.6398-.3234 2.4564-.5586zm-3.545.7266c-.8003.1171-1.6049.2127-2.4119.2942l.1057 1.4149c.8194-.0825 1.6403-.1796 2.46-.2998zm-3.6248.4057c-.8086.0686-1.6192.1245-2.4305.1716l.0612 1.4185c.8192-.0474 1.6391-.104 2.4588-.1737zm-3.64957.2357c-.48625.0243-.97369.0443-1.46233.0628l.04018 1.4197c.4917-.0181.98329-.0391 1.47477-.063z" fill-rule="evenodd"/></g></svg>