<svg fill="none" height="45" viewBox="0 0 41 45" width="41" xmlns="http://www.w3.org/2000/svg" xmlns:xlink="http://www.w3.org/1999/xlink"><filter id="a" color-interpolation-filters="sRGB" filterUnits="userSpaceOnUse" height="46" width="42" x="0" y="0"><feFlood flood-opacity="0" result="BackgroundImageFix"/><feColorMatrix in="SourceAlpha" result="hardAlpha" type="matrix" values="0 0 0 0 0 0 0 0 0 0 0 0 0 0 0 0 0 0 127 0"/><feOffset dx="3" dy="8"/><feGaussianBlur stdDeviation="2"/><feComposite in2="hardAlpha" operator="out"/><feColorMatrix type="matrix" values="0 0 0 0 0 0 0 0 0 0 0 0 0 0 0 0 0 0 0.25 0"/><feBlend in2="BackgroundImageFix" mode="normal" result="effect1_dropShadow_1_21"/><feBlend in="SourceGraphic" in2="effect1_dropShadow_1_21" mode="normal" result="shape"/></filter><g filter="url(#a)"><path d="m19.5963 14.272s.1408-.4065.4463-.5472c.3028-.1408.8101-.1621.8101-.1621l.85 10.0539-.6906 4.9619s-.2019.587-.7305.6083c-.5259.0212-4.9061 0-5.2912 0-.3852 0-.5073-.5073-.5259-.7305-.0213-.2231-.0133-.5976-.0133-.5976l-1.87-.008s-.1089.7969.0717 1.2989c.1567.4356.2975.7836.2948.9324-.0026.2125-.2842.425-.6082.4064-.3241-.0213-.8102-.4463-1.1343-.7093-.324-.2629-5.51965-.2018-5.51965-.2018s-.24969.4622-.52859.7411c-.16735.1673-.43828.2496-.68266.2496-.24437 0-.54719-.324-.48609-.5471.06109-.2232.33734-.7358.38515-1.2352.02125-.2258-.00531-.8553-.11687-.9589-.02656-.0239-.43031-.0106-.8075-.0505-.64281-.0664-1.28563-.8978-1.36531-1.5459-.08235-.6481-.02125-2.6961-.02125-2.6961z" fill="#b3afaf"/><path d="m21.1821 25.5292h-19.13297s-.04516.5365.04781.8818c.04929.1833.13314.3555.24704.5074l18.72922-.0027z" fill="#9a9a9a"/><path d="m27.8944 24.6606 4.0508 1.2538 2.024-.6986s-.0717-3.8091-.0956-4.1942c-.0239-.3852-.1195-.7225-.4834-.9642-.3613-.2418-1.3733-.8447-1.3733-.8447s-3.1105-4.9911-3.3761-5.3524c-.2656-.3612-.5924-.8022-1.3653-.8739-.773-.0717-5.5436-.0133-5.9766.0107-.433.0239-.757.2204-.757 1.1607s.0239 8.1175.0478 8.4788c.0239.3612 1.8328 1.6867 1.8328 1.6867z" fill="#e0e0e0"/><path d="m21.9977 29.2267s-.3878.0106-.6561-.0266c-.2682-.0372-.672-.3054-.6906-.9403-.0106-.3772-.0611-5.6233-.0611-5.6233l7.225.016 2.3375 2.5579 3.8171.0053s.0159 1.5008.0053 1.9019c-.0107.4038-2.0878 1.283-2.0878 1.283z" fill="#dc0d28"/><path d="m33.9746 27.1177h-4.351s-.9323-1.8594-3.6125-1.8275c-3.9365.0478-4.0162 3.9339-4.0162 3.9339h10.2531c.5764 0 1.3999-.1913 1.6097-.9191.178-.6109.1169-1.1873.1169-1.1873z" fill="#b10a1b"/><path d="m31.3104 20.2566s0-.433.2842-.4489.5977.162.8819.4038c.3002.255.4489.4861.5073.6879.0904.3002.016.5685-.4489.5817-.5684.0186-9.5943-.0398-10.0114-.0743-.5232-.0452-.8367-.2683-.8207-.6588.0132-.3745.2842-.494 1.4051-.5073s8.2025.0159 8.2025.0159z" fill="#fff"/><path d="m33.8843 21.5236s-2.7121-.085-2.7705-.0186c-.0823.0983-.0983 1.3786-.0691 1.5725.0293.1939.2843.3294.5977.3427.3134.0132 2.287.0451 2.287.0451z" fill="#fdedc5"/><path d="m22.7174 19.7917c-.4197 0-.5685-.4781-.5685-.8075v-4.1677c0-.3293.2099-.5073.866-.5392.6587-.0292 3.6603.0053 3.9897.016.5073.0159.8526.239 1.3148.8818.3002.4171 2.1516 3.4824 2.3003 3.7347.1488.255.3294.9271-.4489.9403-.8048.016-7.4534-.0584-7.4534-.0584z" fill="#5f6369"/><path d="m29.7856 19.0905h-6.6937c-.1355 0-.255-.1488-.255-.3294s-.0107-3.0016-.016-3.1689c-.0159-.4622.3294-.5685.6269-.5525.3002.0159 3.323.0053 3.5009.0133.3427.0159.6827.4754.9802.9296.3586.5499 1.8567 3.1079 1.8567 3.1079z" fill="#afe3fb"/><path d="m29.6823 19.5845c-.0292.6721-1.105 1.2246-1.376 1.2405-.2682.0159-.4329-.5073-.4621-1.2113-.0293-.7039.2523-1.2856.4781-1.2856.2231 0 1.3839.688 1.36 1.2564z" fill="#5f6369"/><path d="m29.4483 29.6489c-.0212 1.3282-1.0784 3.238-3.3787 3.2513s-3.4956-1.7505-3.4213-3.5594c.0744-1.8381 1.5008-3.137 3.5541-3.0786 1.9205.0585 3.2752 1.5513 3.2459 3.3867z" fill="#4e433d"/><path d="m27.8042 29.572c-.0106.6986-.5658 1.708-1.777 1.7159-1.2113.008-1.7957-.8686-1.7585-1.8222.0399-.9695.8128-1.692 1.8275-1.676 1.0094.0132 1.7213.8128 1.708 1.7823z" fill="#c8c8c8"/><path d="m11.9171 29.6489c-.0213 1.3282-1.0784 3.238-3.37876 3.2513-2.30031.0133-3.49562-1.7505-3.42125-3.5594.07438-1.8381 1.50078-3.137 3.55406-3.0786 1.92045.0585 3.27515 1.5513 3.24595 3.3867z" fill="#4e433d"/><path d="m10.273 29.572c-.0107.6986-.56583 1.708-1.77708 1.7159-1.20859.008-1.79562-.8686-1.75844-1.8222.03985-.9695.81282-1.692 1.82751-1.676 1.00937.0132 1.72121.8128 1.70801 1.7823z" fill="#c8c8c8"/><path d="m19.8941 7.60219c0-.69594-.3055-.97484-.8633-.94562-.5578.02656-15.84452-.05579-16.3439-.05579-.49937 0-.69593.5286-.69593.83407s.09562 15.80205.07437 16.10215c-.01859.3002.06375.7172.59234.773.5286.0558 16.20582.0266 16.54042 0 .3347-.0266.7518-.3055.7518-.6959 0-.3932-.0558-15.65066-.0558-16.01191z" fill="#d16e1d"/><path d="m18.5021 8.21311c0 .36125.1116 13.89489.1116 14.22949 0 .3347-.1674.7252-.6136.7252-.4463 0-14.14455.0266-14.42346 0s-.44625-.1939-.47281-.6402c-.02657-.4462-.02656-14.03292-.02656-14.47917s.44624-.47282.91906-.47282c.47281 0 13.86567.02657 14.06217.05579.1939.0239.4436.22046.4436.58171z" fill="#f5b03a"/><g fill="#d16e1d"><path d="m15.2244 23.6406c.0159-4.9008.0505-16.3306-.0053-16.64138l-.3932.07172-.3957.04781c.0371.43828.0186 10.11765-.0027 16.51925z"/><path d="m11.1602 7.04436h-.7969v16.62284h.7969z"/><path d="m7.13866 7.05762h-.79688v16.54048h.79688z"/></g></g></svg>