<svg fill="none" height="48" viewBox="0 0 48 48" width="48" xmlns="http://www.w3.org/2000/svg" xmlns:xlink="http://www.w3.org/1999/xlink"><filter id="a" color-interpolation-filters="sRGB" filterUnits="userSpaceOnUse" height="46.376" width="32" x="7.73334" y="4.82164"><feFlood flood-opacity="0" result="BackgroundImageFix"/><feColorMatrix in="SourceAlpha" result="hardAlpha" type="matrix" values="0 0 0 0 0 0 0 0 0 0 0 0 0 0 0 0 0 0 127 0"/><feOffset dy="4"/><feGaussianBlur stdDeviation="2"/><feComposite in2="hardAlpha" operator="out"/><feColorMatrix type="matrix" values="0 0 0 0 0 0 0 0 0 0 0 0 0 0 0 0 0 0 0.25 0"/><feBlend in2="BackgroundImageFix" mode="normal" result="effect1_dropShadow_1_41"/><feBlend in="SourceGraphic" in2="effect1_dropShadow_1_41" mode="normal" result="shape"/></filter><clipPath id="b"><path d="m0 0h48v48h-48z"/></clipPath><g clip-path="url(#b)"><g filter="url(#a)"><path d="m23.7333 4.82164c-6.6288 0-12 5.34956-12 11.97596 0 11.4576 12 26.4 12 26.4s12-14.9448 12-26.4c0-6.624-5.3712-11.97596-12-11.97596zm0 18.60236c-1.7186 0-3.3668-.6827-4.582-1.8979-1.2153-1.2152-1.898-2.8635-1.898-4.5821s.6827-3.3668 1.898-4.582c1.2152-1.2152 2.8634-1.898 4.582-1.898s3.3669.6828 4.5821 1.898 1.8979 2.8634 1.8979 4.582-.6827 3.3669-1.8979 4.5821-2.8635 1.8979-4.5821 1.8979z" fill="#f24e1e"/></g><ellipse cx="24.5" cy="16" fill="#eaeaea" rx="8.5" ry="8"/><g fill="#000"><path d="m24 12c-.5933 0-1.1734.1759-1.6667.5056-.4934.3296-.8779.7982-1.1049 1.3463-.2271.5482-.2865 1.1514-.1708 1.7334.1158.5819.4015 1.1165.8211 1.536.4195.4196.9541.7053 1.536.8211.582.1157 1.1852.0563 1.7334-.1708.5481-.227 1.0167-.6115 1.3463-1.1049.3297-.4933.5056-1.0734.5056-1.6667 0-.7957-.3161-1.5587-.8787-2.1213s-1.3256-.8787-2.1213-.8787z"/><path d="m24.5 8c-1.6811 0-3.3245.49852-4.7223 1.43251-1.3979.93399-2.4873 2.26149-3.1307 3.81469-.6433 1.5532-.8116 3.2622-.4837 4.9111.328 1.6488 1.1375 3.1634 2.3263 4.3521 1.1887 1.1888 2.7033 1.9983 4.3521 2.3263 1.6489.3279 3.3579.1596 4.9111-.4837 1.5532-.6434 2.8807-1.7328 3.8147-3.1307.934-1.3978 1.4325-3.0412 1.4325-4.7223-.0026-2.2536-.8989-4.4141-2.4924-6.0076-1.5935-1.59347-3.754-2.48983-6.0076-2.4924zm4.8523 13.9194c-.0121-.7964-.3366-1.5562-.9035-2.1156s-1.3309-.8737-2.1274-.8752h-3.6428c-.7965.0015-1.5605.3158-2.1274.8752s-.8914 1.3192-.9035 2.1156c-1.101-.9832-1.8774-2.2775-2.2265-3.7117-.349-1.4342-.2542-2.9406.2719-4.3197s1.4587-2.5659 2.6743-3.4032c1.2156-.83734 2.6568-1.28568 4.1329-1.28568s2.9173.44834 4.1329 1.28568c1.2156.8373 2.1482 2.0241 2.6743 3.4032s.6209 2.8855.2719 4.3197c-.3491 1.4342-1.1255 2.7285-2.2265 3.7117z"/></g></g></svg>